Coordinates
version=1
nRows=9
nColumns=63
inDegrees=yes

Units are S.I. units (second, meters, Newtons, ...)
If the header above contains a line with 'inDegrees', this indicates whether rotational values are in degrees (yes) or radians (no).

endheader
time	pelvis_tilt	pelvis_list	pelvis_rotation	pelvis_tx	pelvis_ty	pelvis_tz	hip_flexion_r	hip_adduction_r	hip_rotation_r	knee_angle_r	knee_angle_r_beta	ankle_angle_r	subtalar_angle_r	mtp_angle_r	hip_flexion_l	hip_adduction_l	hip_rotation_l	knee_angle_l	knee_angle_l_beta	ankle_angle_l	subtalar_angle_l	mtp_angle_l	L5_S1_Flex_Ext	L5_S1_Lat_Bending	L5_S1_axial_rotation	L4_L5_Flex_Ext	L4_L5_Lat_Bending	L4_L5_axial_rotation	L3_L4_Flex_Ext	L3_L4_Lat_Bending	L3_L4_axial_rotation	L2_L3_Flex_Ext	L2_L3_Lat_Bending	L2_L3_axial_rotation	L1_L2_Flex_Ext	L1_L2_Lat_Bending	L1_L2_axial_rotation	L1_T12_Flex_Ext	L1_T12_Lat_Bending	L1_T12_axial_rotation	Abs_r3	Abs_r2	Abs_r1	Abs_t1	Abs_t2	neck_flexion	neck_bending	neck_rotation	arm_flex_r	arm_add_r	arm_rot_r	elbow_flex_r	pro_sup_r	wrist_flex_r	wrist_dev_r	arm_flex_l	arm_add_l	arm_rot_l	elbow_flex_l	pro_sup_l	wrist_flex_l	wrist_dev_l
0.000000	5.796394	-3.419513	102.089245	0.235974	0.743520	0.702901	4.542430	5.234493	5.996247	0.769837	0.013436	15.422242	-14.475553	0.000000	5.868694	-3.054293	9.091869	0.859604	0.015003	21.895004	-10.359530	0.000000	0.416710	0.467163	0.378458	0.773871	0.621327	0.402112	0.684612	1.135860	0.402112	0.476257	1.135860	0.331151	0.386957	0.952638	0.307497	0.238108	0.723635	0.283844	2.976515	5.284639	2.104871	0.000000	0.000000	28.102168	-1.353122	7.001504	10.505581	-15.324827	49.430305	25.010121	90.294241	-0.897224	-3.463536	20.812899	-3.401766	154.912714	11.115530	7.794808	-5.066775	-19.190346
0.020408	6.234978	-3.019032	102.402852	0.232616	0.744544	0.701303	4.181202	5.573334	5.551241	0.619035	0.010804	14.753987	-14.609269	0.000000	5.473498	-3.406005	10.170649	0.740413	0.012923	21.365831	-11.703892	0.000000	0.379924	0.596292	0.110553	0.705558	0.793068	0.117462	0.624178	1.449823	0.117462	0.434216	1.449823	0.096733	0.352798	1.215958	0.089824	0.217089	0.923656	0.082914	2.713762	6.745370	0.614860	0.000000	0.000000	27.961142	-1.100057	11.214202	10.476685	-15.843990	56.510996	24.900516	86.651586	-4.723991	-3.361133	19.429500	-3.089833	155.624729	10.694763	7.237120	-4.880357	-18.565309
0.040816	6.542495	-2.775050	102.743507	0.229807	0.745380	0.700172	3.961334	5.762710	5.062698	0.495540	0.008649	14.207926	-14.711148	0.000000	5.253583	-3.600423	11.008514	0.646005	0.011275	20.913830	-12.715661	0.000000	0.359127	0.691971	-0.098555	0.666934	0.920321	-0.104715	0.590009	1.682457	-0.104715	0.410446	1.682457	-0.086236	0.333485	1.411066	-0.080076	0.205205	1.071862	-0.073916	2.565205	7.827709	-0.548134	0.000000	0.000000	27.864873	-0.883965	14.807503	10.738544	-15.989342	65.863280	23.866978	81.818525	-7.246220	-3.416066	18.456382	-2.820704	156.962495	10.111292	6.788097	-5.177166	-18.032927
0.061224	6.733481	-2.669759	103.104563	0.227501	0.746045	0.699466	3.867282	5.820500	4.544112	0.396950	0.006928	13.771148	-14.786783	0.000000	5.189021	-3.656259	11.623902	0.573998	0.010018	20.536023	-13.421997	0.000000	0.352331	0.757527	-0.253692	0.654314	1.007511	-0.269547	0.578845	1.841851	-0.269547	0.402679	1.841851	-0.221980	0.327175	1.544749	-0.206124	0.201322	1.173409	-0.190269	2.516666	8.569297	-1.410957	0.000000	0.000000	27.807433	-0.703144	17.816775	11.246045	-15.816516	76.943051	22.099860	76.001156	-8.630137	-3.588812	17.857634	-2.576464	158.815706	9.391422	6.432054	-5.867421	-17.594690
0.081633	6.822472	-2.685351	103.479378	0.225654	0.746559	0.699141	3.883502	5.764584	4.008975	0.320860	0.005600	13.430744	-14.841765	0.000000	5.259883	-3.592226	12.035248	0.522010	0.009111	20.229432	-13.850062	0.000000	0.357553	0.796288	-0.359684	0.664011	1.059063	-0.382164	0.587424	1.936095	-0.382164	0.408647	1.936095	-0.314723	0.332024	1.623791	-0.292243	0.204306	1.233450	-0.269763	2.553964	9.007771	-2.000452	0.000000	0.000000	27.782894	-0.555892	20.277387	11.954078	-15.381142	89.206205	19.789518	69.405578	-9.041970	-3.839850	17.597347	-2.339194	161.074056	8.561457	6.153308	-6.861342	-17.252090
0.102041	6.824005	-2.804017	103.861306	0.224219	0.746937	0.699153	3.994450	5.612842	3.470780	0.264866	0.004623	13.173806	-14.881688	0.000000	5.446240	-3.427037	12.260987	0.487660	0.008511	19.991080	-14.027017	0.000000	0.372807	0.811581	-0.421358	0.692340	1.079403	-0.447692	0.612484	1.973279	-0.447692	0.426081	1.973279	-0.368688	0.346188	1.654977	-0.342353	0.213022	1.257140	-0.316018	2.662922	9.180771	-2.343465	0.000000	0.000000	27.785327	-0.440507	22.224710	12.817530	-14.738853	102.108633	17.126304	62.237889	-8.647948	-4.129658	17.639611	-2.090977	163.627240	7.647702	5.936173	-8.069151	-17.006615
0.122449	6.752616	-3.007949	104.243702	0.223151	0.747200	0.699458	4.184583	5.383154	2.943020	0.226566	0.003954	12.987423	-14.912144	0.000000	5.728162	-3.179402	12.319555	0.468566	0.008178	19.817990	-13.980023	0.000000	0.396108	0.806734	-0.443540	0.735612	1.072956	-0.471262	0.650766	1.961493	-0.471262	0.452712	1.961493	-0.388098	0.367826	1.645092	-0.360377	0.226336	1.249631	-0.332655	2.829359	9.125936	-2.466839	0.000000	0.000000	27.808804	-0.355286	23.694112	13.791291	-13.945280	115.106232	14.300573	54.704187	-7.614298	-4.418716	17.948515	-1.813898	166.364950	6.676460	5.764967	-9.401068	-16.859758
0.142857	6.622843	-3.279339	104.619923	0.222406	0.747364	0.700013	4.438356	5.093398	2.439188	0.203555	0.003553	12.858687	-14.938725	0.000000	6.085719	-2.868036	12.229388	0.462347	0.008069	19.707183	-13.736241	0.000000	0.425471	0.785073	-0.431059	0.790142	1.044147	-0.458000	0.699006	1.908827	-0.458000	0.486271	1.908827	-0.377176	0.395092	1.600921	-0.350235	0.243114	1.216078	-0.323294	3.039096	8.880903	-2.397419	0.000000	0.000000	27.847398	-0.298528	24.720962	14.830247	-13.056055	127.654895	11.502680	47.010572	-6.107248	-4.667501	18.488150	-1.490038	169.176881	5.674037	5.624005	-10.767313	-16.813008
0.163265	6.449221	-3.600379	104.983323	0.221937	0.747447	0.700774	4.740227	4.761455	1.972776	0.193431	0.003376	12.774687	-14.967022	0.000000	6.498984	-2.511649	12.008920	0.466620	0.008144	19.655682	-13.322833	0.000000	0.458911	0.749926	-0.388739	0.852244	0.997401	-0.413035	0.753945	1.823370	-0.413035	0.524489	1.823370	-0.340147	0.426145	1.529249	-0.315851	0.262222	1.161635	-0.291554	3.277955	8.483312	-2.162051	0.000000	0.000000	27.895180	-0.268530	25.340631	15.889289	-12.126809	139.210516	8.922977	39.363140	-4.293026	-4.836492	19.222605	-1.101481	171.952728	4.666736	5.497603	-12.078105	-16.867856
